<svg id="Capa_1" data-name="Capa 1" xmlns="http://www.w3.org/2000/svg" viewBox="0 0 212 212"><defs><style>.cls-1{fill:#147abc;}.cls-2{fill:#66d16f;}.cls-2,.cls-3{stroke:#000;stroke-miterlimit:10;}.cls-3{fill:#39ea20;}</style></defs><g id="Capa_2" data-name="Capa 2"><g id="Capa_1-2" data-name="Capa 1-2"><path class="cls-1" d="M211.5,24.68A24.2,24.2,0,0,0,187.32.5H24.68A24.2,24.2,0,0,0,.5,24.68V187.32A24.2,24.2,0,0,0,24.68,211.5H187.32a24.2,24.2,0,0,0,24.18-24.18Z"/><path class="cls-2" d="M187.32,211.5H24.68A24.2,24.2,0,0,1,.5,187.32V24.68A24.2,24.2,0,0,1,24.68.5H187.32A24.2,24.2,0,0,1,211.5,24.68V187.32A24.2,24.2,0,0,1,187.32,211.5ZM24.68,13.69a11,11,0,0,0-11,11V187.32a11,11,0,0,0,11,11H187.32a11,11,0,0,0,11-11h0V24.68a11,11,0,0,0-11-11Z"/><path class="cls-3" d="M96.1,136.77a6.52,6.52,0,0,1-4.66-1.93L62.87,106.27a6.6,6.6,0,1,1,9.06-9.6h0l.27.27,23.91,23.91,43.7-43.69a6.59,6.59,0,1,1,9.32,9.33l-48.35,48.35A6.62,6.62,0,0,1,96.1,136.77Z"/></g></g></svg>