<svg xmlns="http://www.w3.org/2000/svg" viewBox="0 0 1766.69 2493.68"><defs><style>.cls-1{fill:#264de4;}.cls-2{fill:#2965f1;}.cls-3{fill:#ebebeb;}.cls-4{fill:#fff;}</style></defs><g id="Capa_2" data-name="Capa 2"><g id="Layer_1" data-name="Layer 1"><path class="cls-1" d="M882.26,2493.68,160.78,2293.39,0,490.07H1766.69l-161,1803.05L882.26,2493.68Z"/><path class="cls-2" d="M1468,2178.3,1605.48,637.51H883.34V2340.37L1468,2178.3Z"/><path class="cls-3" d="M368.59,1306.34l19.82,221.17H883.34V1306.34ZM328.75,858.69l20.11,221.17H883.34V858.69ZM883.34,1880.75l-1,.25-246.32-66.51L620.31,1638.1h-222l31,347.27,453.06,125.77,1-.28Z"/><path d="M415.78,0H683.65V112H527.8V224H683.66v112H415.78ZM737.23,0H1005.1V97.41H849.25v19.48H1005.1v224H737.24V238.64H893.09V219.16H737.22V0Zm321.45,0h267.88V97.41H1170.71v19.48h155.85v224H1058.68V238.64h155.86V219.16H1058.69V0Z"/><path class="cls-4" d="M1396.69,1306.34l39.92-447.65h-554v221.17h311.65l-20.12,226.48H882.58v221.17h272.35l-25.68,286.85-246.67,66.57V2111L1336,1985.37l3.32-37.36,52-582.28,5.4-59.39Z"/></g></g></svg>