<svg xmlns="http://www.w3.org/2000/svg" viewBox="0 0 192.32 226"><defs><style>.cls-1,.cls-6{fill:#fff3d6;}.cls-1,.cls-2,.cls-3,.cls-4,.cls-5{stroke:#1a1a1a;stroke-miterlimit:10;}.cls-2{fill:#7171d1;stroke-linecap:square;}.cls-4{fill:#666;}.cls-5{fill:#d0d0f0;opacity:0.54;}.cls-7{fill:#1a1a1a;}</style></defs><g id="Capa_2" data-name="Capa 2"><g id="Capa_2-2" data-name="Capa 2"><circle class="cls-1" cx="95.59" cy="54" r="53.5"/><path class="cls-2" d="M96.09,109c-141.6,0-84,116.5-84,116.5H180.23S237.84,109,96.23,109"/><rect class="cls-3" x="35.09" y="219.5" width="123" height="2" rx="1"/><rect class="cls-4" x="31.09" y="221.5" width="132" height="4" rx="2"/><rect class="cls-4" x="31.59" y="150.5" width="130" height="69" rx="3.54"/><circle class="cls-5" cx="96.09" cy="184.5" r="6"/><path class="cls-6" d="M79,91s24.31,6.2,42.45-6.87"/><path class="cls-7" d="M79,90.91a61.07,61.07,0,0,0,11,1.2,62.72,62.72,0,0,0,11-.64,56.58,56.58,0,0,0,10.59-2.72l2.57-.94c.83-.36,1.64-.79,2.48-1.16l1.25-.57L119,85.4c.8-.45,1.59-.91,2.41-1.35h0a0,0,0,0,1,.06,0,0,0,0,0,1,0,.06c-.73.57-1.49,1.1-2.23,1.65l-1.14.81-1.21.68c-.81.46-1.63.91-2.46,1.33l-2.57,1.09a43.06,43.06,0,0,1-10.83,2.57A63.29,63.29,0,0,1,90,92.61,62.17,62.17,0,0,1,79,91s0,0,0-.06S79,90.91,79,90.91Z"/><path class="cls-6" d="M118.59,80s7,0,7,6"/><path class="cls-7" d="M118.59,80a5.48,5.48,0,0,1,2.75-.22A6.11,6.11,0,0,1,124,80.8a4.75,4.75,0,0,1,1.73,2.4,4.2,4.2,0,0,1-.07,2.8h0a0,0,0,0,1-.06,0,0,0,0,0,1,0,0,6.09,6.09,0,0,0-.54-2.47,5,5,0,0,0-1.61-1.93,7.81,7.81,0,0,0-2.28-1.12,10.15,10.15,0,0,0-2.52-.43,0,0,0,0,1,0,0s0,0,0,0Z"/></g></g></svg>